<svg width="25" height="26" viewBox="0 0 25 26" fill="none" xmlns="http://www.w3.org/2000/svg">
<path d="M18.2358 24.0882C17.0773 24.0882 15.8572 23.8114 14.5961 23.2782C13.3658 22.7553 12.1252 22.0377 10.9154 21.1662C9.71583 20.2844 8.55728 19.3002 7.46024 18.2237C6.37346 17.1266 5.3892 15.9681 4.51772 14.7788C3.63599 13.5484 2.92856 12.3181 2.42617 11.1288C1.89303 9.85747 1.62646 8.62715 1.62646 7.46859C1.62646 6.66888 1.77 5.91018 2.04682 5.20275C2.3339 4.47481 2.79527 3.79813 3.42068 3.21373C4.21014 2.43452 5.11238 2.04492 6.07613 2.04492C6.47599 2.04492 6.88609 2.1372 7.23468 2.30124C7.63454 2.48579 7.97288 2.76261 8.21894 3.13171L10.5976 6.48433C10.8129 6.78166 10.9769 7.06874 11.0897 7.35581C11.223 7.66339 11.2947 7.97097 11.2947 8.2683C11.2947 8.6579 11.182 9.03725 10.9667 9.3961C10.8129 9.67292 10.5771 9.97025 10.2797 10.2676L9.58255 10.9955C9.5928 11.0263 9.60305 11.0468 9.61331 11.0673C9.73634 11.2826 9.9824 11.6517 10.454 12.2053C10.9564 12.7795 11.428 13.3024 11.8997 13.7842C12.5046 14.3789 13.0069 14.8505 13.4786 15.2401C14.063 15.7323 14.4423 15.9783 14.6679 16.0911L14.6474 16.1424L15.3958 15.4042C15.7137 15.0863 16.0212 14.8505 16.3186 14.6967C16.8825 14.3481 17.6002 14.2866 18.3178 14.584C18.5844 14.6967 18.8715 14.8505 19.1791 15.0658L22.583 17.4855C22.9623 17.7418 23.2391 18.0699 23.4032 18.4595C23.557 18.8491 23.6287 19.2079 23.6287 19.5668C23.6287 20.0589 23.5159 20.551 23.3006 21.0124C23.0853 21.4738 22.8188 21.8736 22.4804 22.2427C21.896 22.8886 21.2604 23.35 20.5222 23.6473C19.8147 23.9344 19.0458 24.0882 18.2358 24.0882ZM6.07613 3.58282C5.51223 3.58282 4.98935 3.82889 4.48696 4.32102C4.01534 4.76188 3.68725 5.24376 3.4822 5.76665C3.26689 6.29979 3.16437 6.86368 3.16437 7.46859C3.16437 8.42209 3.38993 9.45761 3.84104 10.5239C4.30242 11.6107 4.94833 12.7385 5.76855 13.8663C6.58876 14.9941 7.52176 16.0911 8.54703 17.1266C9.5723 18.1416 10.6796 19.0849 11.8176 19.9154C12.9249 20.7253 14.063 21.3815 15.1908 21.8531C16.944 22.6016 18.5844 22.7759 19.9378 22.212C20.4606 21.9966 20.922 21.6686 21.3424 21.1969C21.5782 20.9406 21.7627 20.6638 21.9165 20.3357C22.0396 20.0794 22.1011 19.8128 22.1011 19.5463C22.1011 19.3822 22.0703 19.2182 21.9883 19.0336C21.9575 18.9721 21.896 18.8593 21.7012 18.726L18.2973 16.3064C18.0923 16.1629 17.9077 16.0603 17.7334 15.9886C17.5079 15.8963 17.4156 15.804 17.067 16.0193C16.862 16.1219 16.6774 16.2756 16.4724 16.4807L15.6931 17.2497C15.2933 17.6393 14.6781 17.7315 14.2065 17.5572L13.9297 17.4342C13.5093 17.2086 13.0172 16.8601 12.4738 16.3987C11.9817 15.9783 11.4485 15.4862 10.8026 14.8505C10.3002 14.3379 9.79786 13.7945 9.27497 13.1896C8.79309 12.6257 8.4445 12.1438 8.22919 11.744L8.10616 11.4364C8.04465 11.2006 8.02414 11.0673 8.02414 10.9237C8.02414 10.5546 8.15743 10.2266 8.41374 9.97025L9.18269 9.17054C9.38775 8.96548 9.54154 8.77068 9.64406 8.59639C9.72609 8.4631 9.75684 8.35032 9.75684 8.2478C9.75684 8.16577 9.72609 8.04274 9.67482 7.91971C9.60305 7.75567 9.49027 7.57112 9.34674 7.37632L6.96811 4.01344C6.86559 3.8699 6.74256 3.76737 6.58876 3.6956C6.42472 3.62384 6.25043 3.58282 6.07613 3.58282ZM14.6474 16.1526L14.4833 16.8498L14.7602 16.1321C14.7089 16.1219 14.6679 16.1321 14.6474 16.1526Z" fill="white"/>
<path d="M19.313 10.7592C18.8926 10.7592 18.544 10.4106 18.544 9.9902C18.544 9.62111 18.1749 8.85216 17.5597 8.19598C16.9548 7.55006 16.2884 7.17072 15.7245 7.17072C15.3042 7.17072 14.9556 6.82212 14.9556 6.40176C14.9556 5.9814 15.3042 5.63281 15.7245 5.63281C16.719 5.63281 17.7648 6.16595 18.6773 7.13996C19.5283 8.05245 20.0819 9.16999 20.0819 9.9902C20.0819 10.4106 19.7333 10.7592 19.313 10.7592Z" fill="white"/>
<path d="M22.9014 10.7597C22.481 10.7597 22.1324 10.4111 22.1324 9.99075C22.1324 6.45358 19.2617 3.58282 15.7245 3.58282C15.3042 3.58282 14.9556 3.23423 14.9556 2.81387C14.9556 2.39351 15.3042 2.04492 15.7245 2.04492C20.1024 2.04492 23.6703 5.61286 23.6703 9.99075C23.6703 10.4111 23.3218 10.7597 22.9014 10.7597Z" fill="white"/>
</svg>
