<svg width="19" height="19" viewBox="0 0 19 19" fill="none" xmlns="http://www.w3.org/2000/svg">
<path d="M9.50027 11.2182C7.81402 11.2182 6.43652 9.84863 6.43652 8.15447C6.43652 6.4603 7.81402 5.09863 9.50027 5.09863C11.1865 5.09863 12.564 6.46822 12.564 8.16238C12.564 9.85655 11.1865 11.2182 9.50027 11.2182ZM9.50027 6.28613C8.47111 6.28613 7.62402 7.1253 7.62402 8.16238C7.62402 9.19947 8.46319 10.0386 9.50027 10.0386C10.5374 10.0386 11.3765 9.19947 11.3765 8.16238C11.3765 7.1253 10.5294 6.28613 9.50027 6.28613Z" fill="#292D32"/>
<path d="M9.50032 18.018C8.32866 18.018 7.14907 17.5747 6.23074 16.6959C3.89532 14.4476 1.31449 10.8613 2.28824 6.59426C3.16699 2.72301 6.54741 0.989258 9.50032 0.989258C9.50032 0.989258 9.50032 0.989258 9.50824 0.989258C12.4612 0.989258 15.8416 2.72301 16.7203 6.60217C17.6862 10.8693 15.1053 14.4476 12.7699 16.6959C11.8516 17.5747 10.672 18.018 9.50032 18.018ZM9.50032 2.17676C7.19657 2.17676 4.23574 3.40384 3.45199 6.85551C2.59699 10.5843 4.94032 13.7984 7.06199 15.833C8.43157 17.1551 10.577 17.1551 11.9466 15.833C14.0603 13.7984 16.4037 10.5843 15.5645 6.85551C14.7728 3.40384 11.8041 2.17676 9.50032 2.17676Z" fill="#292D32"/>
</svg>
