<svg width="25" height="24" viewBox="0 0 25 24" fill="none" xmlns="http://www.w3.org/2000/svg">
<path d="M21.0585 3.52478C19.0805 1.52706 16.4537 0.30192 13.652 0.0703538C10.8503 -0.161213 8.058 0.616035 5.77886 2.2619C3.49973 3.90777 1.88377 6.3139 1.22245 9.04629C0.56113 11.7787 0.897994 14.6575 2.17228 17.1634L0.921409 23.2362C0.90843 23.2967 0.908062 23.3591 0.92033 23.4197C0.932597 23.4803 0.957234 23.5377 0.992702 23.5884C1.04466 23.6652 1.11883 23.7244 1.2053 23.758C1.29177 23.7916 1.38642 23.798 1.47663 23.7763L7.42852 22.3656C9.92737 23.6076 12.7858 23.9228 15.4953 23.2551C18.2047 22.5874 20.5894 20.9801 22.225 18.7192C23.8606 16.4583 24.641 13.6904 24.4274 10.9081C24.2138 8.12581 23.02 5.50952 21.0585 3.52478ZM19.2027 18.3365C17.8341 19.7012 16.0718 20.602 14.1641 20.9121C12.2564 21.2222 10.2995 20.9258 8.56921 20.0648L7.73962 19.6543L4.09071 20.5184L4.10151 20.4731L4.85765 16.8004L4.4515 15.9989C3.56737 14.2625 3.25549 12.2909 3.56052 10.3664C3.86555 8.44193 4.77184 6.66337 6.14957 5.2855C7.8807 3.5549 10.2283 2.5827 12.6761 2.5827C15.1239 2.5827 17.4715 3.5549 19.2027 5.2855C19.2174 5.30241 19.2333 5.31829 19.2502 5.33303C20.9599 7.06809 21.9143 9.40869 21.9054 11.8445C21.8965 14.2804 20.925 16.6139 19.2027 18.3365Z" fill="white"/>
<path d="M18.879 15.6432C18.4318 16.3475 17.7254 17.2095 16.8374 17.4234C15.282 17.7993 12.8947 17.4364 9.92417 14.6667L9.88745 14.6343C7.27553 12.2125 6.59716 10.1969 6.76135 8.59819C6.85209 7.69082 7.60823 6.86987 8.24555 6.33409C8.3463 6.2481 8.46579 6.18687 8.59444 6.15531C8.72309 6.12375 8.85734 6.12273 8.98646 6.15233C9.11558 6.18193 9.23597 6.24134 9.33803 6.32579C9.44008 6.41025 9.52096 6.51741 9.57419 6.63871L10.5356 8.7991C10.598 8.93918 10.6212 9.09363 10.6025 9.24587C10.5839 9.39811 10.5241 9.5424 10.4297 9.66326L9.94362 10.2941C9.83932 10.4244 9.77638 10.5828 9.7629 10.7492C9.74943 10.9155 9.78603 11.082 9.868 11.2274C10.1402 11.7048 10.7927 12.407 11.5164 13.0572C12.3287 13.7918 13.2296 14.4637 13.7999 14.6927C13.9525 14.755 14.1203 14.7702 14.2817 14.7363C14.443 14.7025 14.5905 14.621 14.7051 14.5025L15.269 13.9344C15.3778 13.8271 15.5131 13.7506 15.6611 13.7126C15.8091 13.6747 15.9645 13.6766 16.1115 13.7183L18.3951 14.3664C18.5211 14.4051 18.6365 14.472 18.7326 14.5621C18.8288 14.6522 18.903 14.7631 18.9497 14.8863C18.9964 15.0095 19.0143 15.1418 19.0021 15.273C18.9898 15.4042 18.9477 15.5308 18.879 15.6432Z" fill="white"/>
</svg>
